<svg xmlns="http://www.w3.org/2000/svg" viewBox="0 0 175 175">
<!-- SVG created with Arrow, by QuiverAI (https://quiver.ai) -->
  <style type="text/css">.cls-0 {fill:#F6DEB0;}
.cls-1 {fill:#BE602F;stroke:#C68654;stroke-width:0.25;stroke-linecap:round;stroke-linejoin:round;stroke-miterlimit:10;}
.cls-2 {fill:#898D5F;stroke:#B0A577;stroke-width:0.25;stroke-linecap:round;stroke-linejoin:round;stroke-miterlimit:10;}
.cls-3 {fill:#BE602F;stroke:#C68654;stroke-width:0.25;stroke-miterlimit:10;}
.cls-4 {fill:#BE602F;stroke:#C68654;stroke-width:0.25;stroke-linecap:round;stroke-linejoin:round;stroke-miterlimit:10;}</style>
  <rect class="cls-0" width="175" height="175"/>
  <g transform="translate(13, 9)">
  <path class="cls-1" d="m87.8 11.8c-1.4-0.5-1.4-0.8-2.4-1.8-3.2-3.4-9.2-8-12.1-8.4-1.7-0.2-3.6 0.6-4.3 2.7-1.3 4.2-1.3 5.2-1 14.2-0.1 7.9-0.5 11.6-2.7 19.5-2.4 8.7-6.9 12-13.4 18.5-4.6 4.2-11.9 12.9-12.6 19.4-0.2 1.8 2.8 3.1 3.6 0.5 1-5 6.1-11.5 10.2-15.3 9.8-9.1 13.6-13.4 16.1-23.1 2-7.6 2.7-14.6 2.4-21-0.2-4.8-0.2-10.8 0.8-12 0.7-0.5 7.1 3.4 9.9 6.6 1.7 1.8 2.4 3.6 4.1 3.8 8.8 1 11.4 3.3 13 6.2 2.2 3.8 5.6 6 8.4 7.5 0.7 0.4 0.6 0.3 0.3 0.2 1 0.5 0.5 4.5-1 7.1-3.4 5.1-8.6 5.1-11.1 7.4-2.4 2.3-2.3 6.2-0.9 10.4 2.8 8.9 3.5 16.3 3.7 23.5 0 1.9 0.6 2.4 1.8 2.3 1.5 0 2-0.6 2-3.1 0-6.4-0.8-14.4-3.5-23.3-1-3.1-1.1-6.7 1.1-8 3-1.6 12-4.1 12.2-14.2 0-2-0.4-4.5-2.5-5.5-2.5-1.2-4.9-2.8-7-6.3-3.3-5.2-8.5-7-14-7.6l-1.1-0.2z"/>
  <path class="cls-2" d="m35.2 62.4c-7.1 0.6-9.6 6.1-10.1 10.2l-1.7-10.4c2.8-2.7 6.2-4.8 6-12.2 0-6.1-4.7-11-6.3-13-0.7-0.5-1.1 0.4-2 1.2-3.2 3.7-5.6 7.2-5.6 11.8 0 6.1 2.9 9.6 6.1 13.1l1.3 9.9-0.8-0.4c-5.2-7-10.9-9-19.1-5-0.5 0.3-1.9 0.6-1 1.6 4.4 5.3 9.1 9.7 17.9 6.3l1.5-0.8 0.7-0.3 1.8 1.1 0.5 0.2c1 1.5 2 3.9 2.2 4 0.4 0.8 1.9 0.5 1-1.2l-1.4-2.9c2.9-0.5 8.3-2.5 9.5-6.9 0.5-1.8 0.5-4.1 0.4-5.7-0.1-0.4-0.5-0.6-0.9-0.6zm-12.6-20.9c2 3.4 2.8 11-0.2 17.6-2.8-6.7-2.2-13.4 0.2-17.6zm-15.9 27.9c3.8-1.3 7.8-0.3 11.2 2.8-5 0.5-8.7-0.7-11.2-2.8zm21.3 2.8c0.4-2.6 2.4-5.1 4.4-6.1-0.2 2.5-2.2 4.9-4.4 6.1z"/>
  <path class="cls-2" d="m53.5 125c-4.6 0.6-7.9 3.4-10.3 6.9l-2.7-2.3c-1.6-1.2-4.9-2.5-7.5-2.2-2.9 0.3-6.1 3.7-8.3 7.3-0.2 0.7 0.3 1.2 0.7 1.2 2.5 0.7 6.8 1.1 9.2-0.2 2.1-1.1 3.8-2.7 4.9-4.5l3.5 2.7c-0.8 2.2-1.8 4.2-1.5 8.1 0.5 5.4 5.1 11.4 11.1 13.6l2.5 1c0.5 0.4 1.3 0 1.4-0.5 0.9-2 1.5-4.6 1.4-7.7-0.4-7-6.4-10.8-9.9-13 5.1 1.2 11.9 4 20.9-3.5 0.8-0.7 0.6-1-0.3-1.9-4.2-3.3-7.6-5-15.1-5zm-23.9 8.9c1.8-1.8 5.4-3.5 7.8-3.4-1.7 1.9-4.5 3.2-7.8 3.4zm24.3 17.6c-3.3-2.4-8.4-9.6-8.8-16.4 3.1 2.5 8.4 10.3 8.8 16.4zm-7.9-19.6c3.6-2 7.7-3.7 15.6-1.7 0.4 0.2 0.9 0.4 0.9 0.8-5 2-10.6 2.4-16.5 0.9z"/>
  <path class="cls-3" d="m30 113.5c0 0.6-0.4 1-1.4 1h-9.1c-0.9 0-1.1-1.9 0.1-1.9 1.3-0.1 2.3-1 1.8-2.6l-1.9-5-1.5-0.6h-8.6c-1.4 3.2-2 5.2-1.5 6.6 0.5 0.9 1.2 1.4 2.1 1.4 1 0 0.9 2.1-0.4 2.1h-7.2c-1 0-1.3-1.8-0.3-2.1 1.3-0.4 2.1-1.2 2.8-3.3 3-8.1 5-12.5 7.7-19.1l-0.2-1.3c-2.2-1.3-1-3.3 3.2-4 0.8-0.1 1.5-0.1 1.9 0.8l8.6 23.5c0.8 2.1 1.3 3.1 2.6 3.4 1 0 1.3 0.5 1.3 1.1zm-9.9-11-5.7-12.6-4.3 11.7c-0.2 0 1 0.5 2.9 0.5 2.9 0 6.4-0.1 7.1 0.4z"/>
  <path class="cls-4" d="m40.8 112.7c0.4 0.3 0.8 1.8-1.1 1.8-1.1 0-2.1 0.1-3.8 0-1.5-0.1-2.3 0.1-3.5 0-0.9 0-1.7-1.5-0.3-2 0.8-0.1 1.4-0.6 1.4-1.4v-22.5c0-0.9-0.8-1-1.3-1.1-1-0.4-1.1-1.8 0.5-2.1 2.4-0.7 4.2-1.7 4.8-1.7 0.5 0 1 0.4 1 0.9v26.6c0 1.3 1.6 1.2 2.3 1.5z"/>
  <path class="cls-4" d="m51.4 112.4c1.1 0.1 0.5 2.1-0.8 2.1-1 0-2.6-0.1-3.7-0.1-1.3 0-2.4 0.2-3.8 0.1-0.7 0-1.5-1.6-0.2-2 1.1-0.4 1.5-0.3 1.5-1.4v-22.1c0.1-1-0.7-1.4-1.3-1.4-1-0.2-1.4-1.9 0.4-2.2 2.6-0.7 4.1-1.7 4.9-1.7 0.5 0 1 0.5 1 0.9-0.2 8.9 0 18.5 0 26.4 0 1.4 1.3 1.1 2 1.4z"/>
  <path class="cls-4" d="m63.5 93.7c3.6 0 7.4 2.7 7.4 7.4v1.8c0 0.5-0.3 0.7-0.8 0.7h-11.9c-1.1 4.8 2.2 7.9 5.8 7.9 2.5 0 4.2-1.1 5-2.1 0.7-1 1.4-1 1.7 0 0.5 0.5-0.3 1.3-0.6 1.6-1.7 1.9-3.5 3.6-7.2 3.6-5.8 0-9.8-3-9.8-10.1 0-5 3.1-10.8 10-10.8h0.4zm3 7.7c0-2-0.5-5.5-3.9-5.5-3 0-4.2 2.8-4.5 5.5h8.4z"/>
  <path class="cls-4" d="m88.2 96.4c0 3.5-2.7 3.7-4.3 1.2-1.4-0.5-4.5 1.1-4.5 3-0.2 3 0 9.1 0.1 10.9 0.4 1 2.1 0.9 2.1 2s-2.2 0.7-5 0.7c-1.7 0-4.1 0.5-4.2-0.7 0-1.3 2.2-0.6 2.2-2.1v-13.3c0-1.6-1.9-0.5-1.9-1.7 0-1.4 0.8-1 2.9-1.8 1.5-0.4 3.5-2.1 3.6-0.1v2.9c2.2-2.8 3.7-3.8 5.7-3.8 2.2-0.1 3.3 0.9 3.3 2.8z"/>
  <path class="cls-4" d="m115.6 106.6c0.5 0.3 0.9 1 0 2.1-1.6 2.4-4.5 5.8-10.6 5.9-8.9 0.1-15-4.6-15.3-14.5-0.2-8.2 6.2-15.5 14.8-15.5 2.7 0 5.2 0.5 7.7 1.3 1.4 0.5 1.4-0.7 2.5-0.3 0.4 0.1 0.4 0.8 0.4 1.3l0.4 7.1c0 0.6-1.5 1-1.9 0.1-1.7-3.1-3.5-6.7-8.6-6.9-5.1 0-9.5 4.7-9.6 11.8 0 7.9 4.7 12.9 10.1 13 3.7 0.1 5.9-1.6 8.1-4 0.8-0.8 1.1-1.6 2-1.4z"/>
  <path class="cls-4" d="m136.6 112c0 1-2 2.7-3.7 2.7-2.2 0.2-3.3-0.8-3.7-3.3-1.3 1.6-2.8 3.3-6.8 3.3-2.9 0-4.9-1.7-4.9-5.2 0-2.4 2.5-5.1 6.1-6.1l5.5-2v-2.4c0-1.5-1-2.8-2.6-2.8-1.9 0-3.4 0.3-3.9 2.9-0.5 2.8-4.6 2-4.9 0-0.5-2 2.8-5.4 7.8-5.4 4.2-0.1 8.4 0.4 8.4 6.9v7.9c0.1 4.1 1.3 2.6 2 2.6 0.5 0 0.7 0.5 0.7 0.9zm-7.6-4.9v-3.7l-4.4 1.3c-1.7 0.7-3 1.9-2.9 3.9 0.2 4.4 7.3 2.4 7.3-1.5z"/>
  <path class="cls-4" d="m148.2 111.5c0 1.2-2.3 3.2-5 3.2-3.6 0-4.2-2.1-4.2-2.8-0.5-0.9-0.6-3-0.4-5v-10.7h-2.1c-1 0-0.6-1.8 0.2-2.2 3.9-1.3 4.2-3.5 4.9-4.9 0.1-0.4 1.8-1 1.8 0.3v4.6h4.2c0.9 0 0.6 2.1 0 2.1h-4.1s-0.1 0-0.1 0.8c-0.2 11.2-0.2 13.2 0.6 14.1 0.6 0.6 2.4 0.6 3.4-0.3 0.8-0.6 1 0.3 0.8 0.8z"/>
  </g>
</svg>