<svg xmlns="http://www.w3.org/2000/svg" viewBox="0 0 740 150" fill="none" role="img" aria-labelledby="logoTitle logoDesc">
  <title id="logoTitle">AllerCat</title>
  <desc id="logoDesc">AllerCat — кормовая добавка для кошек</desc>
  <rect x="12" y="15" width="92" height="92" rx="28" fill="#FFF9F1"/>
  <path d="M41.5 58.7c2.8-3.6 4.5-6.1 5.6-10.4 1.8 4 4.2 6.4 8.1 8.4-4.4 1.5-6.5 3.6-7.6 8.3-1.3-4.2-3.2-5.6-6.1-6.3Z" fill="#90A07B"/>
  <path d="M62.9 42.7c1.1 3.3 4.1 5.3 6.8 7.1 3.8 2.5 5.8 6.1 5.8 10.8 0 5.1-2.5 8.9-6.8 12-2.3 1.7-3.5 3.9-3.8 8.4" stroke="#C06B46" stroke-width="4.2" stroke-linecap="round" stroke-linejoin="round"/>
  <circle cx="46" cy="41.1" r="2.1" fill="#D4A05D"/>
  <text x="132" y="74" fill="#3A241C" font-family="Georgia, 'Times New Roman', serif" font-size="68" letter-spacing="-1.6">AllerCat</text>
  <text x="132" y="116" fill="#78675A" font-family="Arial, Helvetica, sans-serif" font-size="21" font-weight="700" letter-spacing="2.8">КОРМОВАЯ ДОБАВКА ДЛЯ КОШЕК</text>
</svg>
